<svg width="92" height="24" viewBox="0 0 92 24" fill="none" xmlns="http://www.w3.org/2000/svg">
<path d="M87.7414 5.82623H89.8789C90.8269 5.82623 91.593 5.05821 91.593 4.11208V1.7161C91.593 0.768055 90.825 0.00195312 89.8789 0.00195312H87.4829C86.5348 0.00195312 85.7687 0.769971 85.7687 1.7161V3.93013C85.7687 4.23083 85.6902 4.52769 85.5389 4.78817L85.491 4.87052C85.1846 5.40105 84.6177 5.72855 84.0067 5.72855H82.2217C81.6088 5.72855 81.0419 5.40105 80.7374 4.87052L80.6914 4.79008C80.5401 4.5296 80.4616 4.23274 80.4616 3.93205V1.7161C80.4616 0.768055 79.6935 0.00195312 78.7474 0.00195312H76.3514C75.4034 0.00195312 74.6373 0.769971 74.6373 1.7161V4.11208C74.6373 5.06013 75.4053 5.82623 76.3514 5.82623H78.4889C79.1017 5.82623 79.6667 6.15182 79.9732 6.68235L79.9789 6.69192C80.1302 6.95239 80.2088 7.24926 80.2088 7.54995V9.83676C80.2088 10.7848 80.9768 11.5509 81.9229 11.5509H84.0048C84.6196 11.5509 85.1865 11.8784 85.491 12.4109L85.5408 12.497C85.6902 12.7575 85.7687 13.0525 85.7687 13.3512V15.5595C85.7687 16.5076 86.5367 17.2737 87.4829 17.2737H89.8789C90.8269 17.2737 91.593 16.5057 91.593 15.5595V13.1636C91.593 12.2155 90.825 11.4494 89.8789 11.4494H87.7357C87.1228 11.4494 86.5578 11.1219 86.2514 10.5933C86.1001 10.3328 86.0215 10.0359 86.0215 9.73526V7.55187C86.0215 7.25118 86.1001 6.95431 86.2514 6.69384L86.2571 6.68426C86.5616 6.15374 87.1286 5.82623 87.7414 5.82623Z" fill="#A238FF"/>
<path d="M6.25712 5.75916C7.48097 5.75916 8.6282 6.12306 9.61839 6.74934V1.43261C9.61839 0.651184 10.2447 0 11.051 0H12.4836V11.9876V12.4817H12.4568C12.2231 15.7127 9.53795 18.2408 6.25521 18.2408C2.7886 18.2408 0 15.4522 0 11.9856C0.00191525 8.54776 2.79052 5.75916 6.25712 5.75916ZM2.89586 11.9876C2.89586 13.8645 4.38209 15.3488 6.25712 15.3488C8.10725 15.3488 9.61839 13.8626 9.61839 11.9876C9.61839 10.1374 8.10725 8.62629 6.25712 8.62629C4.38018 8.62437 2.89586 10.1374 2.89586 11.9876Z" fill="#A238FF"/>
<path d="M21.8664 14.4103C23.1439 15.3737 22.8049 17.4077 21.2937 17.9018C20.6675 18.1106 20.0699 18.2408 19.5221 18.2408C17.7754 18.2408 16.2394 17.5379 15.0922 16.4175C13.9717 15.2703 13.2688 13.7343 13.2688 11.9876C13.2688 8.57458 16.0843 5.75916 19.4972 5.75916C21.2439 5.75916 22.8068 6.46206 23.9272 7.58248C25.0476 8.7029 25.7505 10.2657 25.7505 11.9876C25.7505 12.0144 25.7505 12.0144 25.7505 12.0144C25.7505 12.5353 25.3081 12.9528 24.7872 12.9528H23.1458H22.4161H16.2911C16.4482 13.5006 16.7335 13.9947 17.1242 14.3854C17.7505 14.9849 18.5837 15.3488 19.5221 15.3488C20.4319 15.3488 21.2401 14.983 21.8664 14.4103ZM16.2892 11.0491H22.7263C22.5693 10.5013 22.2839 10.0072 21.8932 9.61647C21.2669 9.017 20.4338 8.62628 19.5221 8.62628C18.5837 8.62628 17.7505 9.017 17.1242 9.61647C16.7316 10.0072 16.4443 10.5013 16.2892 11.0491Z" fill="#A238FF"/>
<path d="M38.96 5.75916L35.39 16C34.9208 17.3292 33.6433 18.2408 32.2107 18.2408C30.803 18.2408 29.5274 17.3292 29.0582 16L25.4881 5.75916C27.3115 5.75916 28.9547 6.90639 29.5542 8.62628L31.3775 13.8913C31.6648 14.6995 32.7853 14.6995 33.0706 13.8913L34.8939 8.62628C35.4934 6.90639 37.1367 5.75916 38.96 5.75916Z" fill="#A238FF"/>
<path d="M42.373 8.91162C42.2159 9.09357 42.0857 9.35404 42.1125 9.61451C42.1125 10.1355 42.5549 10.553 43.0759 10.553H47.8717C49.6433 10.553 51.1544 11.7768 51.5719 13.445C51.6754 13.7572 51.7022 14.0713 51.7022 14.4103C51.7022 15.4522 51.2846 16.4175 50.5818 17.1204C49.8789 17.8233 48.9136 18.2408 47.8717 18.2408H39.2205V16.8082C39.2205 16 39.8717 15.3488 40.6531 15.3488H47.8449C48.3658 15.3488 48.8082 14.9581 48.835 14.4103C48.835 14.1498 48.7316 13.8894 48.5478 13.7323C48.3658 13.5504 48.1302 13.445 47.8698 13.445H43.051C42.0091 13.445 41.0438 13.0026 40.3409 12.3246C39.8717 11.8285 39.5078 11.231 39.3507 10.553C39.2722 10.2408 39.2205 9.92861 39.2205 9.61451C39.2205 7.47709 40.9921 5.7572 43.1027 5.7572H51.7022V7.18981C51.7022 7.99804 51.051 8.62241 50.2696 8.62241H43.051C42.7905 8.62433 42.5549 8.75648 42.373 8.91162Z" fill="#A238FF"/>
<path d="M58.2159 18.2408C56.9653 18.2408 55.818 17.8769 54.8547 17.2506V24H51.9626V11.9856V11.5164H51.9895C52.2231 8.28533 54.9083 5.7572 58.2179 5.7572C61.6576 5.7572 64.4462 8.5458 64.4462 11.9856C64.4443 15.4522 61.6557 18.2408 58.2159 18.2408ZM61.5772 11.9875C61.5772 10.1374 60.0661 8.62624 58.2159 8.62624C56.339 8.62624 54.8547 10.1374 54.8547 11.9875C54.8547 13.8645 56.3409 15.3488 58.2159 15.3488C60.0661 15.3488 61.5772 13.8625 61.5772 11.9875Z" fill="#A238FF"/>
<path d="M77.1865 11.9876V18.2428H75.2846C74.7369 18.2428 74.3213 17.8004 74.3213 17.2526C73.3311 17.8789 72.1839 18.2428 70.96 18.2428C69.2133 18.2428 67.6773 17.5399 66.53 16.4195C65.4096 15.2722 64.7067 13.7362 64.7067 11.9895C64.7067 8.57652 67.5221 5.76111 70.9351 5.76111C72.6818 5.76111 74.2447 6.464 75.3651 7.58442C76.3821 8.60142 77.0582 9.98232 77.1635 11.5203C77.1865 11.6754 77.1865 11.8305 77.1865 11.9876ZM74.3213 12.0661C74.3213 11.1027 73.9555 10.2428 73.3311 9.61651C72.7048 9.01703 71.8717 8.62632 70.96 8.62632C70.0215 8.62632 69.1884 9.01703 68.5621 9.61651C67.9627 10.2428 67.5988 11.0759 67.5988 11.9876C67.5988 12.9261 67.9646 13.7592 68.5621 14.3855C69.1884 15.0118 70.0484 15.3757 71.0117 15.3489C72.8082 15.322 74.2677 13.8626 74.3213 12.0661Z" fill="#A238FF"/>
</svg>
